<svg width="55" height="55" viewBox="0 0 55 55" fill="none" xmlns="http://www.w3.org/2000/svg">
<mask id="mask0_193_938" style="mask-type:alpha" maskUnits="userSpaceOnUse" x="0" y="0" width="55" height="56">
<path d="M11.7025 5.96729C8.61865 5.96729 6.33744 8.66744 6.43927 11.5958C6.53724 14.4085 6.41005 18.0522 5.49267 21.0231C4.57314 24.0034 3.01767 25.8867 0.476929 26.1291V28.8735C3.01767 29.1154 4.57314 30.9992 5.49267 33.9795C6.41005 36.9503 6.53681 40.5941 6.43927 43.4068C6.33701 46.3351 8.61865 49.0349 11.7025 49.0349H43.3017C46.3856 49.0349 48.6668 46.3347 48.565 43.4068C48.467 40.5941 48.5942 36.9503 49.5111 33.9795C50.4307 30.9996 51.9823 29.1158 54.523 28.8735V26.1291C51.9823 25.8872 50.4311 24.0034 49.5111 21.0231C48.5942 18.0522 48.467 14.4085 48.565 11.5958C48.6668 8.66744 46.3856 5.96729 43.3013 5.96729H11.7025ZM36.6734 32.473C36.6734 36.5052 33.6647 38.9497 28.6722 38.9497H19.4674C19.4114 38.9497 19.3578 38.9274 19.3182 38.8879C19.2786 38.8483 19.2564 38.7946 19.2564 38.7387V16.2549C19.2564 16.2271 19.2618 16.1996 19.2724 16.174C19.2829 16.1483 19.2985 16.125 19.3181 16.1054C19.3377 16.0858 19.3609 16.0702 19.3866 16.0596C19.4122 16.0489 19.4397 16.0435 19.4674 16.0435H28.6236C32.7868 16.0435 35.5188 18.2976 35.5188 21.7583C35.5188 24.1873 33.681 26.3615 31.3392 26.7427V26.8699C34.5267 27.2192 36.6734 29.4256 36.6734 32.473ZM27.7453 18.9486H22.8993V25.7901H26.9813C30.1361 25.7901 31.8759 24.5203 31.8759 22.2503C31.8759 20.1233 30.3802 18.9486 27.7453 18.9486V18.9486ZM22.8993 28.5048V36.045H27.9245C31.2095 36.045 32.9497 34.7276 32.9497 32.2508C32.9497 29.7746 31.1609 28.5048 27.7131 28.5048H22.8993Z" fill="#7952B3"/>
</mask>
<g mask="url(#mask0_193_938)">
<rect y="0.000976562" width="55" height="55" fill="white"/>
</g>
</svg>
