<svg width="55" height="55" viewBox="0 0 55 55" fill="none" xmlns="http://www.w3.org/2000/svg">
<mask id="mask0_193_974" style="mask-type:alpha" maskUnits="userSpaceOnUse" x="0" y="0" width="55" height="56">
<path d="M53.6001 25.085L29.917 1.40324C28.554 0.0394141 26.342 0.0394141 24.9768 1.40324L20.0599 6.32145L26.2981 12.5596C27.7483 12.0702 29.4104 12.3985 30.5658 13.5539C31.1164 14.1051 31.5009 14.8 31.6751 15.5594C31.8493 16.3187 31.8064 17.1118 31.5511 17.8478L37.5633 23.8609C39.0177 23.3594 40.6965 23.6834 41.8576 24.847C43.4818 26.4699 43.4818 29.1009 41.8576 30.7247C41.4716 31.1109 41.0133 31.4172 40.5089 31.6262C40.0045 31.8352 39.4638 31.9428 38.9178 31.9428C38.3719 31.9428 37.8312 31.8352 37.3268 31.6262C36.8224 31.4172 36.3641 31.1109 35.9781 30.7247C35.3982 30.1444 35.0029 29.4056 34.842 28.6012C34.681 27.7967 34.7616 26.9627 35.0736 26.2039L29.4671 20.597L29.4662 35.3529C29.873 35.5532 30.2444 35.8185 30.5658 36.1383C32.1896 37.7612 32.1896 40.3914 30.5658 42.0177C28.942 43.6407 26.3102 43.6407 24.6881 42.0177C23.0647 40.3918 22.9315 37.7617 24.5545 36.1383C24.9558 35.7374 25.3515 35.4345 25.7812 35.2317V20.3391C25.3515 20.1363 24.9562 19.8355 24.554 19.4321C23.3247 18.2032 23.0948 16.3985 23.7256 14.8877L17.6099 8.73758L1.38744 24.9755C0.0231791 26.3406 0.0317728 28.5526 1.39603 29.9169L25.083 53.5987C26.4464 54.9625 28.6601 54.9625 30.0257 53.5987L53.5983 30.0269C54.9626 28.6622 54.9639 26.4489 53.6001 25.085V25.085Z" fill="#F34F29"/>
</mask>
<g mask="url(#mask0_193_974)">
<rect y="0.000976562" width="55" height="55" fill="white"/>
</g>
</svg>
