<svg width="55" height="55" viewBox="0 0 55 55" fill="none" xmlns="http://www.w3.org/2000/svg">
<mask id="mask0_193_979" style="mask-type:alpha" maskUnits="userSpaceOnUse" x="0" y="0" width="55" height="56">
<path fill-rule="evenodd" clip-rule="evenodd" d="M27.5 2.19385C13.1712 2.19385 1.552 13.8104 1.552 28.1418C1.552 39.6067 8.98689 49.3327 19.2968 52.7642C20.5932 53.0048 21.0693 52.2013 21.0693 51.516C21.0693 50.8972 21.0452 48.8532 21.034 46.685C13.8153 48.2546 12.292 43.6235 12.292 43.6235C11.1117 40.6242 9.41099 39.8267 9.41099 39.8267C7.0563 38.2163 9.58845 38.2498 9.58845 38.2498C12.1936 38.4324 13.5661 40.9237 13.5661 40.9237C15.8804 44.8897 19.6363 43.7433 21.117 43.0808C21.3499 41.4037 22.0223 40.2586 22.7644 39.6106C17.001 38.9553 10.942 36.73 10.942 26.7874C10.942 23.9545 11.956 21.6398 13.6159 19.8222C13.3461 19.1691 12.4579 16.5299 13.8668 12.9558C13.8668 12.9558 16.0454 12.2584 21.004 15.6156C23.0742 15.0402 25.2944 14.751 27.5 14.7412C29.7043 14.751 31.9258 15.0394 33.9999 15.6147C38.9524 12.2576 41.1284 12.9549 41.1284 12.9549C42.5408 16.5287 41.6526 19.1682 41.3832 19.8213C43.0469 21.6389 44.0537 23.9537 44.0537 26.7866C44.0537 36.7528 37.9835 38.9467 32.2055 39.5896C33.1366 40.3948 33.9659 41.9743 33.9659 44.3947C33.9659 47.8666 33.9358 50.6609 33.9358 51.5155C33.9358 52.206 34.4033 53.0151 35.7182 52.7603C46.0221 49.3254 53.4484 39.6024 53.4484 28.1418C53.4479 13.8113 41.83 2.19428 27.5 2.19428V2.19385Z" fill="#181616"/>
<path d="M11.3798 39.449C11.3227 39.5779 11.1199 39.6166 10.9351 39.5285C10.746 39.4443 10.6408 39.2685 10.7018 39.1392C10.7576 39.006 10.9609 38.9695 11.1487 39.0584C11.3377 39.1431 11.4451 39.3205 11.3794 39.4494L11.3798 39.449ZM12.4308 40.6216C12.3075 40.7364 12.0656 40.6831 11.9015 40.5013C11.7313 40.3208 11.6995 40.0789 11.8254 39.9625C11.9535 39.8482 12.1881 39.9023 12.3582 40.0828C12.5275 40.2658 12.561 40.5056 12.4313 40.6221L12.4308 40.6216ZM13.4544 42.1156C13.2954 42.2265 13.035 42.123 12.8743 41.8922C12.7153 41.661 12.7153 41.3839 12.8786 41.2735C13.0389 41.1626 13.2954 41.2627 13.4587 41.4913C13.6168 41.7255 13.6168 42.0026 13.4544 42.1152V42.1156ZM14.8556 43.5598C14.7138 43.7167 14.4104 43.6746 14.1887 43.461C13.9623 43.2517 13.8991 42.954 14.0413 42.7976C14.1857 42.6403 14.4903 42.6841 14.7133 42.8964C14.9398 43.1052 15.0081 43.4034 14.8564 43.5594L14.8556 43.5598ZM16.7892 44.3981C16.726 44.6014 16.4347 44.6938 16.1403 44.607C15.8469 44.518 15.6548 44.2804 15.715 44.075C15.7751 43.8701 16.0686 43.7742 16.3646 43.8666C16.6581 43.9551 16.8502 44.1915 16.7892 44.3981ZM18.9131 44.5533C18.9204 44.7672 18.6712 44.9443 18.3631 44.9486C18.0524 44.9559 17.8011 44.7823 17.7981 44.5717C17.7981 44.3556 18.0421 44.1807 18.3524 44.1747C18.6605 44.1691 18.9135 44.341 18.9135 44.5528L18.9131 44.5533ZM20.8888 44.2173C20.9258 44.4256 20.7114 44.6401 20.405 44.6972C20.1042 44.7531 19.8249 44.6233 19.7862 44.4166C19.7493 44.2026 19.9676 43.9882 20.2683 43.9328C20.5751 43.8799 20.8501 44.0058 20.8888 44.2177V44.2173Z" fill="#181616"/>
</mask>
<g mask="url(#mask0_193_979)">
<rect y="0.000976562" width="55" height="55" fill="white"/>
</g>
</svg>
