<svg width="55" height="55" viewBox="0 0 55 55" fill="none" xmlns="http://www.w3.org/2000/svg">
<path d="M51.5113 0H3.49377C1.56529 0 0 1.56529 0 3.49377V51.5062C0 53.4347 1.56529 55 3.49377 55H51.5062C53.4347 55 55 53.4347 55 51.5113V3.49377C55 1.56529 53.4347 0 51.5113 0ZM30.119 42.1452C30.119 47.3782 27.0499 49.7619 22.5688 49.7619C18.5175 49.7619 15.5966 47.0457 14.4048 44.5238L18.5226 42.0326C19.3155 43.4394 20.5227 44.5238 22.2619 44.5238C23.9244 44.5238 24.881 43.8742 24.881 41.3472V24.881H30.119V42.1452ZM41.4802 49.7619C36.8406 49.7619 34.2062 47.4242 32.7381 44.5238L36.6667 41.9048C37.7358 43.6542 38.9021 45.3269 41.3677 45.3269C43.4394 45.3269 44.5238 44.2936 44.5238 42.8613C44.5238 41.1528 43.3984 40.5441 41.1221 39.5466L39.874 39.0095C36.2677 37.4749 33.8686 35.5515 33.8686 31.4797C33.8686 27.7353 36.7281 24.881 41.1886 24.881C44.3652 24.881 46.6467 25.9859 48.2938 28.8811L44.4062 31.3825C43.5468 29.8428 42.626 29.2392 41.1886 29.2392C39.7256 29.2392 38.7998 30.1702 38.7998 31.3825C38.7998 32.8813 39.7256 33.4849 41.869 34.4159L43.1171 34.953C47.3679 36.769 49.7619 38.6258 49.7619 42.7999C49.7619 47.2963 46.2272 49.7619 41.4802 49.7619Z" fill="white"/>
</svg>
