<svg width="55" height="55" viewBox="0 0 55 55" fill="none" xmlns="http://www.w3.org/2000/svg">
<mask id="mask0_193_923" style="mask-type:alpha" maskUnits="userSpaceOnUse" x="0" y="0" width="55" height="56">
<path fill-rule="evenodd" clip-rule="evenodd" d="M7.27633 0.739746C6.79207 0.777559 6.31641 0.771543 5.84762 0.90002C4.82195 1.18146 3.91059 1.63135 3.10664 2.32486C2.63398 2.73221 2.22148 3.17135 1.87129 3.68869C1.33074 4.48748 0.9625 5.346 0.777734 6.31236C0.851641 6.4417 0.929414 6.57748 1.01191 6.71541C1.5357 7.59111 2.05992 8.4608 2.585 9.33564L3.96516 11.6306C4.38969 12.3379 4.81336 13.0456 5.23703 13.7528L7.21703 17.0563L8.56754 19.3096C9.22367 20.4031 9.88152 21.4958 10.5368 22.5898L12.9469 26.6164C13.6417 27.7761 14.3378 28.935 15.0339 30.0938L15.1267 30.2288C15.2277 30.261 15.308 30.2335 15.3914 30.2137C16.3084 29.9937 17.2253 29.775 18.1423 29.5559C19.6294 29.2005 21.1166 28.8465 22.6037 28.4907L24.933 27.9334C26.4365 27.5742 27.9404 27.2158 29.4439 26.8557C30.9637 26.4922 32.4831 26.127 34.0033 25.763C34.7716 25.5787 35.5399 25.3952 36.3086 25.2117C37.7957 24.8568 39.2829 24.5028 40.77 24.1487L45.6289 22.9915L45.8915 22.9206L45.8197 22.7784L44.4937 20.9041L43.184 19.05L41.7832 17.0717L40.4443 15.1755L39.1175 13.3017L37.7476 11.3651C37.3003 10.7334 36.8521 10.1026 36.4044 9.47143L35.6967 8.47197C35.5878 8.31979 35.5027 8.15185 35.4445 7.97397C35.3044 7.53955 35.4643 7.25037 35.7178 7.03682C35.8819 6.89803 36.071 6.79619 36.2755 6.73604C36.5596 6.64874 36.8478 6.5756 37.1392 6.51689C37.7231 6.40646 38.3109 6.31279 38.897 6.21525L40.8839 5.89127C41.3029 5.82209 41.7214 5.74947 42.1403 5.67857C42.7096 5.58232 43.279 5.48564 43.8487 5.39068C44.4018 5.29787 44.9548 5.20592 45.5078 5.11482L47.318 4.81877L48.5745 4.60779C49.0523 4.52787 49.5296 4.44838 50.007 4.37018C50.6026 4.27307 51.1977 4.1751 51.7932 4.08186C52.1482 4.02643 52.5031 4.00709 52.8554 4.1085C53.1168 4.1859 53.3632 4.30691 53.5842 4.46643L53.894 4.68256C53.9249 4.61123 53.8802 4.57256 53.8596 4.53174C53.4199 3.6352 52.7962 2.84137 52.0291 2.20197C51.3174 1.60398 50.4943 1.15274 49.6074 0.874238C49.0793 0.70709 48.5366 0.784863 47.9841 0.743184M23.9289 54.5714C23.9022 54.5714 23.8786 54.3781 23.8485 54.3269C23.204 53.2269 22.5526 52.0462 21.9158 50.9423C21.114 49.5506 20.3181 48.1555 19.528 46.7571C18.6837 45.2627 17.8466 43.7639 17.0087 42.266C16.2126 40.842 15.4178 39.4171 14.6244 37.9915C14.1453 37.13 13.6692 36.2667 13.1905 35.4048L13.0634 35.2076L12.8305 35.2535C12.3698 35.3726 11.9101 35.4924 11.4503 35.6136C10.8101 35.782 10.1703 35.9535 9.52961 36.1206C8.09145 36.4949 6.65328 36.867 5.21512 37.24C3.75246 37.6198 2.22836 38.0005 0.765273 38.3787C0.676328 38.4014 0.859375 38.4092 0.429688 38.4242V47.5099C0.606719 47.7918 0.589961 47.659 0.601133 47.7519C0.635078 48.0208 0.690078 48.292 0.737344 48.5584C0.914375 49.551 1.3127 50.4597 1.88848 51.2873C2.73281 52.5016 3.8573 53.3696 5.23488 53.9007C5.72687 54.0897 6.24035 54.2229 6.76543 54.2874L7.29867 54.4283" fill="#FD4F31"/>
<path fill-rule="evenodd" clip-rule="evenodd" d="M2.13812 33.4056C3.83066 33.0029 5.52363 32.6008 7.21617 32.199C7.95953 32.0228 8.70332 31.8488 9.44668 31.6718C9.81836 31.5833 10.1909 31.499 10.5596 31.3993C10.8879 31.3108 10.9282 31.2021 10.7594 30.9061C10.5153 30.4781 10.267 30.0527 10.0199 29.626L7.84394 25.8792L5.66887 22.1318C4.93109 20.8608 4.19246 19.5898 3.45426 18.3192L1.55848 15.0579C1.2852 14.5878 0.953477 14.1165 0.678906 13.6468C0.627773 13.5613 0.859375 13.459 0.429688 13.4135V33.779C0.429688 33.7652 0.624336 33.7536 0.690078 33.7377L2.13812 33.4056V33.4056ZM54.2369 47.9625C53.5734 48.1984 52.9096 48.436 52.2466 48.6736L47.7155 50.2983C46.8763 50.5995 46.0389 50.9042 45.1993 51.2041C43.4882 51.8147 41.7764 52.4231 40.0649 53.0324C39.0732 53.3856 38.0811 53.8222 37.0898 54.1771C36.8182 54.2746 36.5505 54.5711 36.2815 54.5711H47.6639L47.9089 54.4306C48.1985 54.4181 48.4834 54.3322 48.7678 54.2802C49.9361 54.0667 50.9824 53.5613 51.9093 52.8227C52.6212 52.2551 53.2005 51.5611 53.6542 50.7697C54.1209 49.955 54.398 49.0737 54.5312 48.1481C54.5428 48.0682 54.5677 47.9776 54.5007 47.8951C54.4062 47.8877 54.3228 47.932 54.2369 47.9625V47.9625ZM53.2593 32.6781C52.7575 31.9915 52.2543 31.3061 51.7533 30.619C51.0619 29.6707 50.3718 28.7215 49.6813 27.7728C49.4007 27.3878 49.1163 27.0058 48.8426 26.6165C48.7601 26.4992 48.666 26.4678 48.5375 26.5026L48.464 26.5237C47.193 26.8326 45.9216 27.1407 44.6501 27.4488L42.3719 28.0018L37.9152 29.0842C36.4461 29.4413 34.977 29.7988 33.5075 30.155L28.9261 31.2644C27.4235 31.6292 25.9218 31.9953 24.4196 32.3606L20.0617 33.4185C19.2938 33.6049 18.526 33.7906 17.759 33.9779C17.646 34.0054 17.5244 34.0123 17.4041 34.1034L17.5068 34.2989C18.8777 36.6685 20.2524 39.0359 21.6309 41.4012C22.4361 42.7818 23.2435 44.1615 24.05 45.5417C24.5137 46.3344 24.9743 47.1281 25.4418 47.9187C25.9603 48.7973 26.4835 49.6732 27.0114 50.5462C27.17 50.807 27.35 51.0563 27.5314 51.302C27.6528 51.4672 27.8055 51.607 27.9808 51.7133C28.1639 51.8237 28.3611 51.8585 28.5691 51.8117C28.6765 51.7872 28.7818 51.7519 28.8857 51.7158L29.2682 51.574C30.6591 51.0984 32.0495 50.6227 33.4409 50.1488C34.5262 49.7792 35.6129 49.4114 36.6992 49.044C37.7773 48.6784 38.8562 48.3144 39.9347 47.9505L43.1462 46.866C44.2411 46.496 45.3355 46.126 46.4299 45.7552C47.7731 45.2993 49.1159 44.8417 50.4599 44.3867C51.7554 43.9484 53.0522 43.5127 54.3482 43.0752C54.4277 43.0486 54.5153 43.0374 54.5811 42.9502L54.5892 42.7616C54.5896 40.0739 54.5888 37.3858 54.5918 34.6981C54.5945 34.5625 54.5507 34.4301 54.4676 34.3229C54.0603 33.7777 53.6611 33.2268 53.2593 32.6781V32.6781ZM53.0363 7.35318C52.7347 6.97118 52.3505 6.85001 51.8796 6.9729C51.6746 7.02661 51.4641 7.06056 51.2553 7.0988C50.5704 7.22427 49.8846 7.34759 49.1996 7.47177C48.1968 7.65396 47.1943 7.83786 46.1914 8.01833C45.3973 8.16099 44.6029 8.3015 43.8084 8.44071L40.6209 8.99845C40.4873 9.02165 40.3524 9.04486 40.2235 9.08611C40.0357 9.14626 39.9816 9.264 40.0675 9.4406C40.1375 9.58497 40.2248 9.7229 40.3193 9.85267C40.9784 10.761 41.6406 11.6672 42.3027 12.5739C43.2154 13.8238 44.1285 15.0734 45.0416 16.3225C45.8141 17.3795 46.5876 18.4365 47.3606 19.4931C47.9682 20.3233 48.5757 21.1534 49.1842 21.9832L49.3041 22.1284L54.5768 20.8252L54.5892 20.5519C54.5896 16.8948 54.5888 13.2377 54.5918 9.58025C54.5918 9.41868 54.5527 9.28892 54.4509 9.16087C54.0074 8.60099 53.5721 8.03466 53.1334 7.47091L53.0363 7.35318V7.35318ZM54.4547 25.0739C53.6572 25.2656 52.8567 25.4477 52.0399 25.6639C52.1263 25.8173 54.3666 28.8414 54.4968 28.9849L54.5785 29.03L54.5875 28.8457L54.5879 27.5726C54.5884 26.8339 54.5901 26.0953 54.5884 25.3567C54.5884 25.2668 54.6137 25.1702 54.5518 25.0791L54.4547 25.0739V25.0739Z" fill="#FD4F31"/>
</mask>
<g mask="url(#mask0_193_923)">
<rect y="0.000976562" width="55" height="55" fill="white"/>
</g>
</svg>
