<svg width="55" height="55" viewBox="0 0 55 55" fill="none" xmlns="http://www.w3.org/2000/svg">
<mask id="mask0_193_952" style="mask-type:alpha" maskUnits="userSpaceOnUse" x="0" y="0" width="55" height="56">
<path d="M53.916 52.7592L52.7919 51.6691C51.7267 50.2546 50.3564 49.0119 48.9183 47.9802C47.7714 47.1569 45.1967 46.0449 44.7181 44.7107L44.63 44.6269C45.4434 44.535 46.393 44.2411 47.1437 44.0396C48.4044 43.7018 49.4451 43.789 50.747 43.453C51.334 43.2855 51.9927 43.1174 52.4224 42.9499V42.6147C51.9927 41.9397 51.3795 41.0459 50.6619 40.4349C48.7846 38.8365 46.7771 37.2393 44.6674 35.9073C43.4973 35.1691 42.0716 34.6891 40.832 34.0631C40.4147 33.8521 39.6924 33.7425 39.4166 33.3919C38.7648 32.5617 38.4163 31.509 37.9135 30.5418C36.8612 28.5149 35.83 26.3016 34.8976 24.1691C34.2616 22.715 33.8478 21.2816 33.0546 19.9771C29.2476 13.7178 25.1505 9.94041 18.8032 6.22705C17.4518 5.43729 15.8259 5.12576 14.1071 4.71756C13.1859 4.66213 12.2633 4.60584 11.3412 4.54955C10.7779 4.31494 10.1923 3.62615 9.66459 3.29186C7.56084 1.96326 2.16698 -0.926385 0.60936 2.87291C-0.374195 5.271 2.07889 7.61022 2.95631 8.8258C3.57291 9.67744 4.36139 10.6335 4.80096 11.5921C5.091 12.2225 5.14041 12.8546 5.38834 13.521C5.99764 15.1633 6.52745 16.9499 7.31635 18.4671C7.71467 19.2354 8.15381 20.0441 8.65784 20.7307C8.96635 21.1522 9.49573 21.3379 9.57952 21.9884C9.06217 22.7129 9.03252 23.8378 8.74163 24.7556C7.43108 28.8871 7.92608 34.0227 9.83174 37.0803C10.4161 38.0196 11.7937 40.0327 13.6882 39.2601C15.3451 38.5855 15.0744 36.4938 15.5483 34.6487C15.6553 34.2311 15.4688 33.9234 15.8985 33.6428V33.7266C16.3381 34.7466 16.8084 35.7531 17.3087 36.7447C18.4259 38.5439 20.2689 40.4237 21.9485 41.6922C22.8195 42.35 23.6329 43.487 24.4923 43.872V43.8286H24.5872C24.3694 43.3989 24.0278 43.3271 23.7493 43.0534C23.0932 42.4106 22.3631 41.6002 21.8213 40.8633C20.2933 38.7892 18.9433 36.514 17.7131 34.1507C17.1253 33.0224 16.6144 31.775 16.1194 30.6269C15.929 30.1843 15.9312 29.5131 15.5333 29.2841C14.9906 30.1254 14.1918 30.8052 13.772 31.799C13.1012 33.3872 13.0149 35.3242 12.7661 37.3321C12.6187 37.3846 12.6844 37.3485 12.5981 37.4155C11.4302 37.134 11.0203 35.9322 10.5858 34.9005C9.48799 32.2923 9.28432 28.093 10.2503 25.0912C10.5003 24.3139 11.63 21.8681 11.1724 21.1501C10.9541 20.4347 10.2339 20.02 9.83131 19.473C9.33245 18.7967 8.83487 17.9064 8.4894 17.1252C7.59092 15.0924 7.17198 12.8094 6.22581 10.7538C5.77334 9.77112 5.00893 8.77639 4.38116 7.90326C3.68635 6.93518 2.90776 6.22233 2.3685 5.05229C2.17729 4.63635 1.9169 3.97033 2.20092 3.54279C2.29116 3.25447 2.41877 3.13416 2.70409 3.04006C3.19092 2.66494 4.54444 3.16467 5.05147 3.37479C6.39596 3.93338 7.51831 4.44901 8.65741 5.20354C9.20354 5.56619 9.75698 6.01565 10.4178 6.44533H11.1724C12.3527 6.44533 13.6749 6.54502 14.7779 6.88018C16.7265 7.47272 18.4732 8.40213 20.0596 9.40373C24.8919 12.4554 28.8428 16.803 31.546 21.9841C31.9808 22.8186 32.169 23.6165 32.5519 24.5012C33.3245 26.2857 34.2981 28.1226 35.0669 29.8676C35.8343 31.6091 36.5819 33.3661 37.6665 34.815C38.2367 35.5764 40.4384 35.9855 41.4391 36.4087C42.1408 36.7048 43.2902 37.0142 43.9545 37.4142C45.2234 38.1799 46.4527 39.0917 47.6438 39.93C48.2385 40.3485 50.0673 41.2681 50.1588 42.026C47.2098 41.9453 44.9578 42.2203 43.0324 43.0319C42.4854 43.2627 41.6123 43.2691 41.5229 43.9545C41.8237 44.2694 41.8705 44.7404 42.1094 45.128C42.5688 45.8713 43.3452 46.869 44.0379 47.3915C44.795 47.963 45.5744 48.5736 46.3857 49.0682C47.829 49.9478 49.4395 50.4505 50.8291 51.3318C51.6481 51.8517 52.5298 52.5061 53.3277 53.0922C53.723 53.3822 53.7106 53.833 54.5699 54.0147V53.9314C54.1407 53.5898 54.1635 53.118 53.916 52.7592V52.7592ZM12.6819 10.0835C12.067 10.0719 11.6016 10.151 11.1719 10.2506V10.3134H11.257C11.5505 10.7431 12.0683 11.3146 12.4305 11.8336L13.2692 13.5988L13.3522 13.5184C13.8717 13.1519 14.1097 12.5684 14.1067 11.6746C13.8992 11.4559 13.8678 11.1822 13.6882 10.921C13.4484 10.5733 12.9839 10.3761 12.6819 10.0835V10.0835Z" fill="#00618A"/>
</mask>
<g mask="url(#mask0_193_952)">
<rect y="0.000976562" width="55" height="55" fill="white"/>
</g>
</svg>
