<svg width="55" height="55" viewBox="0 0 55 55" fill="none" xmlns="http://www.w3.org/2000/svg">
<mask id="mask0_193_911" style="mask-type:alpha" maskUnits="userSpaceOnUse" x="0" y="0" width="55" height="56">
<path d="M27.5001 14.1973C13.0025 14.1973 1.24878 20.1536 1.24878 27.5008C1.24878 34.848 13.0025 40.8044 27.5001 40.8044C41.9978 40.8044 53.7514 34.848 53.7514 27.5008C53.7514 20.1536 41.9978 14.1973 27.5001 14.1973ZM20.6694 30.0927C20.0429 30.6788 19.3472 30.9207 18.5811 31.1699C17.815 31.4196 16.84 31.368 15.6545 31.368H12.9676L12.223 35.6649H9.08585L11.8853 21.0555H17.9181C19.7331 21.0555 21.0569 21.5776 21.8892 22.5302C22.7216 23.4828 22.9716 24.835 22.6399 26.5422C22.5028 27.2456 22.2721 27.8996 21.9464 28.4822C21.6089 29.0834 21.1778 29.627 20.6694 30.0927V30.0927ZM29.8264 31.368L31.0644 25.1719C31.2053 24.4466 31.1537 23.9078 30.9092 23.6444C30.6643 23.3805 30.1435 23.2039 29.3473 23.2039H26.8594L25.2563 31.368H22.1436L24.943 17.1883H28.0557L27.3115 21.0555H30.0842C31.8292 21.0555 33.0323 21.4057 33.6945 22.0141C34.3566 22.6226 34.5551 23.4562 34.2905 24.8191L32.9881 31.368H29.8264ZM47.1252 26.565C46.9886 27.2684 46.7574 27.9112 46.4321 28.4934C46.1064 29.0765 45.681 29.6097 45.1555 30.0927C44.5291 30.6788 43.833 30.9207 43.0673 31.1699C42.3016 31.4196 41.3257 31.368 40.1402 31.368H37.4534L36.7092 35.6649H33.572L36.371 21.0555H42.4042C44.2192 21.0555 45.5431 21.5776 46.375 22.5302C47.2064 23.4828 47.4569 24.8582 47.1252 26.565V26.565ZM41.2153 23.2039H39.0664L37.8947 29.2196H39.8034C41.0675 29.2196 42.0102 29.095 42.629 28.618C43.2486 28.1419 43.6658 27.4029 43.8828 26.2887C44.0908 25.2183 43.9962 24.3834 43.5992 23.9434C43.2018 23.5034 42.4073 23.2039 41.2153 23.2039V23.2039ZM16.7296 23.2039H14.5803L13.4085 29.2196H15.3167C16.5813 29.2196 17.5236 29.095 18.1428 28.618C18.762 28.1419 19.1796 27.4029 19.3962 26.2887C19.6042 25.2183 19.5096 24.3834 19.1126 23.9434C18.7156 23.5034 17.9215 23.2039 16.7296 23.2039Z" fill="#6181B6"/>
</mask>
<g mask="url(#mask0_193_911)">
<rect y="0.000976562" width="55" height="55" fill="white"/>
</g>
</svg>
