<svg width="55" height="55" viewBox="0 0 55 55" fill="none" xmlns="http://www.w3.org/2000/svg">
<mask id="mask0_193_947" style="mask-type:alpha" maskUnits="userSpaceOnUse" x="0" y="0" width="55" height="56">
<path fill-rule="evenodd" clip-rule="evenodd" d="M52.9624 32.9941C52.7691 31.7403 51.7159 30.9191 50.4909 30.8637C50.0474 30.8435 49.5971 30.8899 49.155 30.9462C48.6209 31.0141 48.0932 31.1344 47.5604 31.2139C47.1921 31.2689 46.8187 31.2943 46.4509 31.3321L46.4419 31.2844C47.1286 29.9876 47.844 28.705 48.4937 27.3897C48.9917 26.3808 49.4179 25.3354 49.8584 24.2985C50.5871 22.5806 51.1693 20.8095 51.6514 19.0095C52.1134 17.286 52.5087 15.5436 52.6329 13.7557C52.6827 13.0416 52.7171 12.3244 52.7132 11.6094C52.7098 11.0392 52.6483 10.4682 52.5912 9.89969C52.5267 9.24828 52.3299 8.63082 52.0575 8.03656C51.6983 7.25367 51.1414 6.61129 50.5553 6.00113C50.0861 5.51258 49.57 5.06742 49.0583 4.6227C48.3287 3.98805 47.5084 3.48145 46.6563 3.03156C45.6911 2.51866 44.6685 2.12201 43.6098 1.84992C42.9683 1.68621 42.3122 1.56461 41.6625 1.43484C41.4287 1.38758 41.1946 1.29004 40.9608 1.29004H36.5604C36.4014 1.29004 36.2437 1.37211 36.0834 1.39016C35.0298 1.50746 33.9887 1.70598 32.9777 2.01922C32.5995 2.13652 32.2541 2.06262 31.8948 2.02953C31.6194 2.00418 31.3487 1.93027 31.0733 1.91652C30.024 1.8641 28.9734 1.78719 27.9245 1.79836C26.9195 1.80867 25.9248 1.9741 24.952 2.25039C24.1377 2.48156 23.3411 2.76387 22.6114 3.19184C22.2991 3.37488 22.0516 3.34051 21.7284 3.24727C20.6426 2.93402 19.5491 2.63969 18.4461 2.39262C17.7586 2.23879 17.0517 2.1623 16.3496 2.08883C15.6759 2.01881 14.9996 1.97666 14.3223 1.9625C13.6615 1.94832 12.9959 1.94875 12.338 2.00719C11.2902 2.09828 10.2574 2.31659 9.26234 2.6573C8.16031 3.03359 7.1306 3.59524 6.21758 4.31805C5.28645 5.05496 4.53965 5.95473 3.93895 6.98211C3.30602 8.06621 2.87203 9.2268 2.60219 10.4458C2.45609 11.1063 2.36371 11.7852 2.26359 12.4559C2.23223 12.6647 2.57812 12.8736 2.14844 13.0815V16.0008C2.57812 16.195 2.23781 16.3888 2.26273 16.5835C2.32246 17.0514 2.37531 17.5232 2.45437 17.9877C2.57941 18.7229 2.72766 19.4559 2.87891 20.1864C3.08892 21.2074 3.31037 22.2259 3.5432 23.2419C3.71336 23.981 3.90715 24.7157 4.10996 25.4466C4.41977 26.563 4.72484 27.6814 5.07504 28.7853C5.40031 29.811 5.77285 30.822 6.14238 31.8331C6.65414 33.2317 7.26687 34.5852 8.00164 35.8825C8.63715 37.0057 9.36332 38.0575 10.3374 38.9229C10.9794 39.4931 11.6939 39.9314 12.5258 40.1505C13.1794 40.3224 13.8437 40.343 14.5127 40.206C15.2749 40.0509 15.987 39.7098 16.5855 39.213C16.6555 39.1554 16.7325 39.1116 16.8154 39.2173C17.1312 39.6173 17.554 39.8841 17.9962 40.1149C19.1894 40.7371 20.4896 40.9236 21.8105 40.9996C22.1302 41.0181 22.4533 40.9721 22.7756 40.9631C23.4034 40.9459 24.0135 40.8234 24.6138 40.6498C24.9283 40.5587 25.2355 40.4432 25.5557 40.3353C25.5724 40.6761 25.5939 41.0043 25.6038 41.3326L25.6485 43.1227C25.6566 43.3951 25.6674 43.6684 25.6927 43.9395C25.7576 44.6386 25.8212 45.3382 25.9046 46.0351C25.9626 46.5155 26.0227 46.9998 26.1357 47.4686C26.3623 48.4149 26.6726 49.3392 27.063 50.2306C27.4368 51.0958 28.0112 51.8595 28.7388 52.4585C29.6927 53.2474 30.8107 53.5839 32.0182 53.6462C32.5175 53.6724 33.0309 53.6479 33.5225 53.5585C34.3038 53.4197 35.0766 53.2367 35.8372 53.0107C37.3802 52.5449 38.714 51.7405 39.7104 50.4407C40.2776 49.6999 40.7434 48.8986 41.0425 48.0138C41.2891 47.2829 41.5216 46.5447 41.7063 45.7966C41.8524 45.2071 41.9246 44.5991 42.0136 43.9971C42.0724 43.5988 42.1077 43.1966 42.1446 42.7953C42.2048 42.1434 42.2662 41.492 42.3096 40.8389C42.3397 40.3843 42.3384 39.9275 42.3564 39.4721C42.362 39.3333 42.3844 39.1954 42.3973 39.057C42.4093 38.9289 42.4738 38.8847 42.6044 38.8868C43.0646 38.8937 43.5256 38.9057 43.9845 38.8851C44.4989 38.8619 45.0179 38.84 45.5241 38.7549C46.2453 38.6344 46.9608 38.4815 47.6682 38.2964C48.5031 38.0782 49.2688 37.6871 50.0057 37.2416C50.8643 36.7229 51.6467 36.1145 52.2818 35.3307C52.8339 34.6471 53.0956 33.8569 52.9624 32.9941V32.9941ZM51.4963 33.4161C51.468 33.8092 51.2879 34.1461 51.0267 34.434C49.7939 35.7931 48.2475 36.6177 46.4784 37.0237C45.8064 37.1775 45.1129 37.2575 44.425 37.3211C43.8372 37.3727 43.2468 37.3867 42.6572 37.3627C42.225 37.3464 41.7961 37.2476 41.3544 37.184C41.3102 37.5879 41.268 38.0086 41.2169 38.4284L41.0111 40.0375C40.9488 40.5476 40.9002 41.0593 40.8362 41.5689C40.7735 42.0635 40.6953 42.5564 40.6295 43.0509C40.5681 43.5116 40.523 43.9743 40.4546 44.4341C40.3494 45.1388 40.2488 45.8452 40.1113 46.5443C39.9463 47.38 39.6932 48.1896 39.2803 48.9432C38.7767 49.8632 38.0626 50.564 37.1538 51.0831C36.2171 51.6185 35.1931 51.8969 34.155 52.1298C33.4202 52.2948 32.6631 52.3219 31.9189 52.2548C30.6281 52.138 29.5264 51.5858 28.6937 50.5851C27.8987 49.6299 27.3608 48.535 27.1683 47.2958C27.0784 46.7059 27.0081 46.1132 26.9573 45.5186C26.9003 44.8579 26.8575 44.196 26.8288 43.5335C26.7907 42.6929 26.7625 41.852 26.7442 41.0108C26.7214 39.977 26.7141 38.9431 26.6995 37.9093L26.6969 37.8698C26.171 38.1852 25.6541 38.5306 25.1058 38.8151C24.465 39.1465 23.7636 39.3443 23.0441 39.3964C22.4778 39.4394 21.9042 39.4785 21.3404 39.4334C20.4162 39.3591 19.4928 39.2143 18.6652 38.7592C18.3296 38.5745 17.9794 38.3497 17.7482 38.0545C17.1939 37.3473 17.4595 36.4535 18.2952 36.0234C18.8727 35.7256 19.5031 35.6014 20.1291 35.4566C20.674 35.333 21.2132 35.1855 21.7452 35.0145C22.2703 34.8426 22.6016 34.4168 22.9286 33.9991L23.4468 33.3327C23.2306 33.3099 23.027 33.2867 22.8233 33.2678C22.205 33.2094 21.615 33.0392 21.0508 32.7891C20.5679 32.5756 20.5605 32.5524 20.2065 32.9365C19.6152 33.5785 19.0403 34.2355 18.4611 34.8882C18.0348 35.3681 17.6112 35.8511 17.1871 36.3323C16.7668 36.8084 16.3732 37.3116 15.9208 37.7546C15.2487 38.4125 14.4388 38.8082 13.4724 38.7635C12.8524 38.7352 12.2848 38.5177 11.7743 38.1624C10.7207 37.4285 10.0109 36.402 9.36461 35.3239C8.5366 33.9424 7.90109 32.4707 7.35711 30.9587C6.9807 29.9137 6.60258 28.8678 6.27387 27.8078C5.9168 26.6558 5.60355 25.4892 5.29547 24.323C5.06534 23.4419 4.85303 22.5563 4.65867 21.6667C4.43204 20.6563 4.22232 19.6423 4.02961 18.6249C3.90156 17.9379 3.82723 17.2409 3.72367 16.5491C3.58402 15.6167 3.55824 14.6757 3.60895 13.7394C3.65406 12.8959 3.77523 12.0546 3.89555 11.2167C4.06227 10.0574 4.44426 8.9634 4.99383 7.93043C5.33027 7.2975 5.74793 6.72215 6.2309 6.18762C7.02367 5.3102 7.98316 4.67598 9.05051 4.19988C9.79645 3.8673 10.5845 3.66707 11.3876 3.51066C12.5795 3.27863 13.7822 3.28766 14.9854 3.31258C15.5113 3.32332 16.0351 3.41914 16.5606 3.47113C17.692 3.58371 18.801 3.82176 19.8958 4.11566C20.6938 4.32965 21.4754 4.6068 22.2668 4.84742C22.3463 4.87148 22.4628 4.86934 22.5277 4.8268C23.6002 4.12684 24.7723 3.66492 26.0189 3.40066C26.492 3.30055 26.9801 3.25672 27.4639 3.22578C28.0521 3.1884 28.6451 3.15402 29.2321 3.18797C29.9376 3.22836 30.6397 3.33234 31.341 3.42859C31.6813 3.475 32.0134 3.59316 32.3546 3.62539C32.5179 3.64086 32.6911 3.52141 32.8638 3.48145C33.7442 3.2782 34.6208 3.05176 35.5089 2.89105C36.1702 2.7716 36.8457 2.71531 37.5182 2.67664C38.268 2.63367 39.0234 2.6023 39.7727 2.6384C40.7216 2.68539 41.6643 2.81813 42.5893 3.035C43.7396 3.3027 44.843 3.69156 45.8919 4.23125C46.6757 4.6343 47.4207 5.1018 48.0915 5.67672C48.5311 6.05398 48.9809 6.42652 49.378 6.84676C49.8678 7.36496 50.3675 7.88359 50.6748 8.54746C50.9059 9.04805 51.0709 9.56625 51.1165 10.1145C51.1732 10.796 51.242 11.4801 51.2355 12.1624C51.2295 12.8151 51.1405 13.4674 51.0774 14.1184C50.9339 15.6025 50.6112 17.0544 50.2193 18.487C49.8915 19.6704 49.5204 20.8413 49.1068 21.9975C48.7291 23.0636 48.2934 24.1103 47.853 25.1527C47.5288 25.9249 47.1765 26.6849 46.7968 27.4314C46.0762 28.8433 45.3269 30.2407 44.4602 31.5705C44.3107 31.8004 44.1689 32.0359 44.0228 32.2705C44.4009 32.5257 44.8293 32.6155 45.2607 32.662C45.6711 32.7066 46.0896 32.7333 46.4995 32.7028C47.1556 32.6542 47.8096 32.5605 48.4619 32.469C49.1081 32.3788 49.7415 32.1949 50.4049 32.2434C51.0675 32.2916 51.5414 32.7952 51.4963 33.4161V33.4161ZM42.0376 31.9753C41.7562 31.6118 41.4691 31.2526 41.1937 30.8848C40.7614 30.3073 40.4508 29.6623 40.1388 29.0143C39.8432 28.4003 39.4805 27.8189 39.169 27.2118C38.6255 26.1526 38.072 25.0969 37.5714 24.0171C36.942 22.6605 36.4457 21.2559 36.2893 19.7533C36.2231 19.1173 36.2063 18.4823 36.3348 17.8523C36.5406 16.8464 37.0661 16.0597 37.9496 15.52C38.769 15.0194 39.6821 14.8579 40.6175 14.8071C41.198 14.7758 41.7811 14.8016 42.3835 14.8016L42.3633 14.6997C41.9886 13.9164 41.6384 13.1198 41.2285 12.3549C40.6502 11.2755 39.9102 10.3023 39.0861 9.39996C38.4755 8.7318 37.8142 8.11176 37.0898 7.56391C36.3773 7.02465 35.6267 6.54297 34.8257 6.14895C33.8705 5.6793 32.8758 5.31621 31.8321 5.08461C30.8292 4.86203 29.8199 4.72582 28.7912 4.71465C27.9138 4.7052 27.042 4.74473 26.1873 4.94281C24.8974 5.24145 23.7175 5.77254 22.6909 6.63277C22.123 7.10908 21.6155 7.65309 21.1797 8.2527C20.6658 8.95867 20.2512 9.72094 19.8967 10.5202C19.4103 11.6167 19.0764 12.758 18.8482 13.931C18.7339 14.5158 18.6446 15.1058 18.5535 15.6953C18.5217 15.9016 18.5191 16.1125 18.5006 16.3489C18.6592 16.2664 18.7735 16.2028 18.8904 16.1461L19.2706 15.9755C20.5567 15.3872 21.8891 15.0087 23.3213 15.0521C23.9297 15.0705 24.512 15.1909 25.0529 15.4573C26.0906 15.969 26.6978 16.8391 26.9616 17.9404C27.1438 18.7005 27.2684 19.4757 27.3896 20.2487C27.4845 20.8524 27.5816 21.4626 27.5928 22.0714C27.6087 22.9613 27.5636 23.8529 27.515 24.7424C27.4733 25.4987 27.3169 26.2443 27.051 26.9536C26.5697 28.2396 26.0335 29.5046 25.5325 30.7834C25.367 31.2057 25.2398 31.6432 25.0834 32.1077C25.3249 32.1077 25.5209 32.1059 25.7168 32.1085C25.7933 32.1098 25.8715 32.112 25.9454 32.1296C26.5212 32.2654 27.0205 32.5262 27.43 32.9692C27.9761 33.5587 28.2627 34.2466 28.2773 35.0429C28.2855 35.4841 28.2391 35.9267 28.2412 36.368C28.2502 38.4245 28.2657 40.481 28.2829 42.537C28.2859 42.873 28.3027 43.2095 28.3267 43.5451C28.377 44.2476 28.4277 44.9506 28.4964 45.6514C28.5446 46.1486 28.6116 46.6448 28.6902 47.1386C28.8015 47.8381 29.1199 48.4607 29.4813 49.0558C29.7924 49.5676 30.1967 50.0024 30.7295 50.3023C31.6349 50.812 32.6098 50.8545 33.5925 50.6667C34.2564 50.54 34.9082 50.3363 35.5528 50.1262C36.1866 49.9228 36.7653 49.5768 37.2445 49.1147C37.6961 48.6768 38.0166 48.1432 38.2327 47.5541C38.6521 46.4115 38.7827 45.2084 38.9563 44.0147C39.0212 43.5679 39.0775 43.1197 39.1368 42.672C39.2043 42.1623 39.2726 41.6532 39.3379 41.144C39.386 40.7646 39.4298 40.3843 39.4763 40.0049C39.5424 39.46 39.6125 38.9156 39.6756 38.3704C39.7242 37.9488 39.7654 37.5256 39.8084 37.1032C39.8638 36.5635 39.9236 36.0238 39.9713 35.4833C40.0082 35.0729 39.9932 34.6553 40.0658 34.2527C40.1994 33.5145 40.5483 32.8862 41.2027 32.4802C41.4764 32.3105 41.7854 32.1987 42.0892 32.0552L42.0376 31.9753V31.9753ZM17.2889 28.9452C16.9626 28.1777 16.7659 27.3613 16.7071 26.5295C16.6521 25.7453 16.7454 24.9641 16.8257 24.1834C16.9039 23.4271 16.9688 22.6674 16.9916 21.9077C17.0294 20.6591 16.9452 19.4121 16.8854 18.1643C16.8493 17.4214 16.9357 16.6694 17.0019 15.9248C17.0616 15.254 17.1359 14.5816 17.2627 13.9207C17.4754 12.8117 17.7577 11.7186 18.159 10.6589C18.5402 9.65434 18.978 8.67594 19.5963 7.79508C20.02 7.19094 20.5008 6.62633 20.9627 6.03594L20.8257 5.98738C19.3226 5.51 17.7951 5.13703 16.2241 4.97418C15.4812 4.89727 14.7357 4.85215 13.9906 4.80789C13.762 4.79414 13.53 4.82508 13.3005 4.84699C12.7325 4.90113 12.1576 4.92262 11.5986 5.02918C10.6472 5.21008 9.73457 5.5143 8.88937 6.00973C8.13055 6.45445 7.49332 7.02937 6.95965 7.71902C6.37012 8.48043 5.97352 9.34152 5.68863 10.2598C5.35219 11.343 5.19191 12.4576 5.14852 13.5825C5.1107 14.5687 5.0918 15.5604 5.26195 16.5427C5.38871 17.274 5.47336 18.013 5.61301 18.7414C5.80336 19.7344 6.00746 20.7252 6.24336 21.7079C6.58066 23.1147 6.91754 24.5237 7.31715 25.9133C7.69957 27.2449 8.13098 28.5645 8.59848 29.8681C8.9809 30.932 9.42305 31.9762 9.88883 33.0066C10.1922 33.6777 10.5596 34.3236 10.9446 34.9522C11.3541 35.6195 11.8198 36.2529 12.4519 36.7371C13.2494 37.3486 13.8669 37.4435 14.6773 36.7728C15.0245 36.4853 15.3179 36.1304 15.62 35.7922C16.1 35.2551 16.5632 34.7034 17.041 34.1646C17.6494 33.4779 18.2656 32.7986 18.877 32.1154C19.0064 31.971 19.1305 31.8223 19.2564 31.6763L19.0485 31.4936C18.2933 30.7738 17.6944 29.9064 17.2889 28.9452V28.9452ZM40.358 8.50535C40.8579 9.08657 41.3323 9.68928 41.7798 10.3118C42.6392 11.5188 43.3258 12.822 43.8316 14.2163C44.0554 14.8308 44.2342 15.4512 44.1543 16.1237C44.0988 16.5946 44.1036 17.0725 44.0619 17.546C44.0271 17.94 43.9648 18.3319 43.9136 18.7246C43.8371 19.3167 43.7263 19.9071 43.6932 20.5018C43.6618 21.0677 43.6945 21.6396 43.7302 22.2068C43.7663 22.783 43.844 23.3566 43.8969 23.932C43.9566 24.5843 44.037 25.2365 44.0554 25.8901C44.0705 26.4268 44.0228 26.9669 43.9759 27.5027C43.9201 28.1481 43.7564 28.7729 43.5123 29.3723C43.3409 29.7942 43.1359 30.2033 42.9421 30.6257L43.0199 30.7082L43.138 30.7997L43.2571 30.5866C44.2622 29.0047 45.1555 27.3546 45.9306 25.6482C46.4265 24.5466 46.8974 23.434 47.343 22.3112C48.0408 20.565 48.5929 18.7697 49.02 16.9388C49.2117 16.1168 49.3582 15.2824 49.4884 14.4479C49.5898 13.7957 49.6745 13.1357 49.6934 12.4774C49.7136 11.7791 49.6749 11.0753 49.6104 10.3788C49.5623 9.85285 49.4325 9.32348 49.103 8.89594C48.5732 8.20758 48.0012 7.5493 47.2979 7.02852C46.7057 6.5898 46.1158 6.13992 45.4803 5.77082C44.4727 5.18645 43.3821 4.79715 42.2426 4.53203C41.1305 4.27293 40.0039 4.16121 38.87 4.13758C38.2014 4.1234 37.5298 4.19516 36.8625 4.25789C36.2579 4.31461 35.6572 4.41129 35.0483 4.49121C35.7014 4.85859 36.3455 5.18516 36.9531 5.57016C38.2306 6.37926 39.3753 7.35293 40.358 8.50535V8.50535ZM23.7613 31.1593C24.1742 29.8389 24.7367 28.5782 25.2815 27.3098C25.7232 26.2811 25.9647 25.1974 26.0451 24.0845C26.085 23.5358 26.0739 22.9802 26.0468 22.4298C26.0199 21.8175 25.9637 21.2067 25.8784 20.5998C25.7641 19.8259 25.6339 19.0516 25.4508 18.2919C25.2523 17.4699 24.7517 16.8976 23.8941 16.6866C23.3716 16.5581 22.8525 16.5633 22.3244 16.6466C21.0345 16.8499 19.8537 17.3251 18.7537 18.0212C18.5324 18.1613 18.4108 18.2743 18.4491 18.5918C18.5298 19.2643 18.5475 19.9475 18.5445 20.6264C18.5402 21.5872 18.4993 22.548 18.4628 23.5083C18.4508 23.8211 18.4057 24.1322 18.3721 24.4437C18.3206 24.9207 18.2213 25.3972 18.2243 25.8733C18.2273 26.364 18.2776 26.8663 18.3966 27.3416C18.7748 28.8485 19.5757 30.0817 20.8884 30.9518C21.6958 31.4868 22.5891 31.7566 23.5696 31.8077C23.6363 31.5826 23.6955 31.3699 23.7613 31.1593ZM22.2204 18.2313C22.0477 17.8687 22.1465 17.5683 22.547 17.4291C22.6445 17.3947 22.7451 17.3582 22.8465 17.3483C22.9857 17.3346 23.1275 17.3449 23.2684 17.3449C23.7763 17.3475 24.2649 17.4184 24.6843 17.7415C24.9532 17.9486 25.0254 18.2236 24.8514 18.5059C24.6043 18.9064 24.2275 19.1075 23.7647 19.1461C23.0355 19.2067 22.5238 18.8668 22.2204 18.2313ZM42.4329 18.099C42.4914 17.616 42.5382 17.1318 42.5979 16.6488C42.622 16.4546 42.5197 16.4021 42.3569 16.3974C41.8447 16.3832 41.3325 16.3652 40.8203 16.3557C40.2428 16.3454 39.6808 16.4382 39.1462 16.6578C38.5533 16.9019 38.1017 17.2929 37.9173 17.9383C37.7825 18.4142 37.7397 18.9115 37.7914 19.4035C37.8632 20.1643 38.0356 20.9122 38.3041 21.6276C38.6624 22.5819 39.0375 23.5358 39.4857 24.4502C40.0929 25.6881 40.7799 26.8865 41.4249 28.1055C41.5972 28.4308 41.742 28.7703 41.9216 29.1501C42.2837 28.395 42.4816 27.5716 42.5021 26.7344C42.5197 26.0426 42.4643 25.3478 42.4239 24.6556C42.3986 24.2319 42.3388 23.8108 42.2976 23.388C42.24 22.7989 42.1528 22.2102 42.1395 21.6198C42.1261 21.0196 42.1687 20.4159 42.2202 19.8164C42.2688 19.2415 42.3637 18.6713 42.4329 18.099V18.099ZM41.2775 17.6341C41.0871 18.1596 40.6802 18.4561 40.1526 18.5433C39.6606 18.6241 39.2296 18.4423 38.9091 18.05C38.6809 17.7707 38.7681 17.4398 39.1102 17.2512C39.5029 17.0338 39.9347 16.9788 40.4439 16.9457C40.5823 16.9711 40.7907 16.9921 40.9887 17.0488C41.2762 17.13 41.3823 17.3462 41.2775 17.6341ZM26.0571 33.8161C25.7757 33.5862 25.4036 33.5729 25.1359 33.8251C24.8037 34.1388 24.5115 34.4976 24.2193 34.8512C23.882 35.2598 23.5658 35.6848 23.1305 36.0015C22.4971 36.4617 21.7589 36.6525 21.0169 36.8329C20.4269 36.9764 19.8344 37.1096 19.2427 37.2476L19.2354 37.3241C19.4111 37.4053 19.5813 37.5067 19.7643 37.5647C20.6667 37.8504 21.5845 37.9927 22.538 37.9119C23.2263 37.8534 23.882 37.7035 24.5034 37.4087C25.3584 37.0035 26.0163 36.3616 26.5757 35.6148C26.6694 35.4902 26.712 35.3058 26.7231 35.1451C26.7614 34.5775 26.473 34.1555 26.0571 33.8161V33.8161ZM48.2939 34.0421C47.5677 34.1199 46.8407 34.2024 46.1123 34.2441C45.7609 34.2643 45.4042 34.1972 45.0493 34.1684C44.4542 34.1203 43.8732 33.988 43.3701 33.67C43.0787 33.4865 42.8368 33.4659 42.5275 33.5699C42.0857 33.7186 41.7252 33.9446 41.6187 34.4232C41.5461 34.7468 41.5198 35.082 41.4906 35.4132C41.485 35.4717 41.5581 35.5791 41.6139 35.5937C41.9547 35.6835 42.2971 35.7896 42.6456 35.821C43.0736 35.8597 43.5093 35.8472 43.9403 35.8257C44.4056 35.8025 44.874 35.7725 45.3325 35.6951C46.4131 35.5138 47.4586 35.2182 48.3871 34.6054C48.7218 34.3841 49.0536 34.1581 49.3861 33.9343L49.3586 33.887C49.0037 33.9398 48.6505 34.0043 48.2939 34.0421V34.0421Z" fill="#336791"/>
</mask>
<g mask="url(#mask0_193_947)">
<rect y="0.000976562" width="55" height="55" fill="white"/>
</g>
</svg>
