<svg width="55" height="55" viewBox="0 0 55 55" fill="none" xmlns="http://www.w3.org/2000/svg">
<mask id="mask0_193_928" style="mask-type:alpha" maskUnits="userSpaceOnUse" x="0" y="0" width="55" height="56">
<path d="M27.5 32.3994C30.2053 32.3994 32.3984 30.2063 32.3984 27.501C32.3984 24.7956 30.2053 22.6025 27.5 22.6025C24.7947 22.6025 22.6016 24.7956 22.6016 27.501C22.6016 30.2063 24.7947 32.3994 27.5 32.3994Z" fill="#61DAFB"/>
<path d="M46.1055 19.4229C45.1602 19.0791 44.1719 18.7354 43.1406 18.4346C43.3984 17.4033 43.6133 16.3721 43.7852 15.3838C44.6875 9.71191 43.6992 5.71582 40.9492 4.16895C40.1328 3.69629 39.2305 3.48145 38.1992 3.48145C35.1914 3.48145 31.3672 5.71582 27.5 9.4541C23.6328 5.71582 19.8086 3.48145 16.8008 3.48145C15.7695 3.48145 14.8672 3.69629 14.0508 4.16895C11.3008 5.75879 10.3125 9.75488 11.2148 15.3838C11.3867 16.3721 11.6016 17.4033 11.8594 18.4346C10.8281 18.7354 9.83984 19.0361 8.89453 19.4229C3.52344 21.4854 0.601562 24.3213 0.601562 27.501C0.601562 30.6807 3.56641 33.5166 8.89453 35.5791C9.83984 35.9229 10.8281 36.2666 11.8594 36.5674C11.6016 37.5986 11.3867 38.6299 11.2148 39.6182C10.3125 45.29 11.3008 49.2861 14.0508 50.833C14.8672 51.3057 15.7695 51.5205 16.8008 51.5205C19.8516 51.5205 23.6758 49.2861 27.5 45.5479C31.3672 49.2861 35.1914 51.5205 38.1992 51.5205C39.2305 51.5205 40.1328 51.3057 40.9492 50.833C43.6992 49.2432 44.6875 45.2471 43.7852 39.6182C43.6133 38.6299 43.3984 37.5986 43.1406 36.5674C44.1719 36.2666 45.1602 35.9658 46.1055 35.5791C51.4766 33.5166 54.3984 30.6807 54.3984 27.501C54.3984 24.3213 51.4766 21.4854 46.1055 19.4229V19.4229ZM39.7461 6.31738C41.5078 7.34863 42.1094 10.5283 41.3789 15.04C41.25 15.9424 41.0352 16.8877 40.7773 17.876C38.543 17.3604 36.1797 17.0166 33.6875 16.8018C32.2266 14.7393 30.7227 12.8916 29.2187 11.2158C32.3984 8.0791 35.6211 5.93066 38.2422 5.93066C38.8008 5.93066 39.3164 6.05957 39.7461 6.31738V6.31738ZM34.9336 31.7979C34.1602 33.1729 33.2578 34.5479 32.3125 35.9229C30.7227 36.0518 29.1328 36.0947 27.5 36.0947C25.8242 36.0947 24.2344 36.0518 22.6875 35.9229C21.7422 34.5479 20.8828 33.1729 20.1094 31.7979C19.293 30.3799 18.5195 28.9189 17.832 27.501C18.5195 26.083 19.293 24.6221 20.1094 23.2041C20.8828 21.8291 21.7852 20.4541 22.7305 19.0791C24.3203 18.9502 25.9102 18.9072 27.543 18.9072C29.2187 18.9072 30.8086 18.9502 32.3555 19.0791C33.3008 20.4541 34.1602 21.8291 34.9336 23.2041C35.75 24.6221 36.5234 26.083 37.2109 27.501C36.4805 28.9189 35.75 30.3369 34.9336 31.7979ZM38.5 30.3799C39.1445 31.8838 39.6602 33.3447 40.1328 34.8057C38.6719 35.1494 37.125 35.4072 35.4922 35.6221C36.0078 34.8057 36.5664 33.9463 37.0391 33.0439C37.5547 32.1416 38.0273 31.2393 38.5 30.3799ZM27.5 42.0244C26.4687 40.9072 25.4805 39.7041 24.5352 38.458C25.5234 38.501 26.5117 38.5439 27.5 38.5439C28.4883 38.5439 29.4766 38.501 30.4648 38.458C29.5195 39.7041 28.5312 40.9072 27.5 42.0244ZM19.5078 35.5791C17.875 35.3643 16.3281 35.1064 14.8672 34.7627C15.3398 33.3447 15.8555 31.8408 16.5 30.3369C16.9727 31.1963 17.4453 32.0986 17.9609 32.958C18.4766 33.9033 18.9922 34.7197 19.5078 35.5791V35.5791ZM16.5 24.6221C15.8555 23.1182 15.3398 21.6572 14.8672 20.1963C16.3281 19.8525 17.875 19.5947 19.5078 19.3799C18.9922 20.1963 18.4336 21.0557 17.9609 21.958C17.4453 22.8604 16.9727 23.7627 16.5 24.6221V24.6221ZM27.5 12.9775C28.5312 14.0947 29.5195 15.2979 30.4648 16.5439C29.4766 16.501 28.4883 16.458 27.5 16.458C26.5117 16.458 25.5234 16.501 24.5352 16.5439C25.4805 15.2979 26.4687 14.0947 27.5 12.9775ZM37.0391 22.001L35.4922 19.4229C37.125 19.6377 38.6719 19.8955 40.1328 20.2393C39.6602 21.6572 39.1445 23.1611 38.5 24.665C38.0273 23.7627 37.5547 22.8604 37.0391 22.001ZM13.6211 15.04C12.8906 10.5283 13.4922 7.34863 15.2539 6.31738C15.6836 6.05957 16.1992 5.93066 16.7578 5.93066C19.3359 5.93066 22.5586 8.03613 25.7812 11.2158C24.2773 12.8486 22.7734 14.7393 21.3125 16.8018C18.8203 17.0166 16.457 17.4033 14.2227 17.876C13.9648 16.8877 13.793 15.9424 13.6211 15.04V15.04ZM3.00781 27.501C3.00781 25.4814 5.45703 23.333 9.75391 21.7432C10.6133 21.3994 11.5586 21.0986 12.5039 20.8408C13.1914 22.9893 14.0508 25.2666 15.082 27.5439C14.0508 29.8213 13.1484 32.0557 12.5039 34.2041C6.57422 32.4854 3.00781 29.9072 3.00781 27.501ZM15.2539 48.6846C13.4922 47.6533 12.8906 44.4736 13.6211 39.9619C13.75 39.0596 13.9648 38.1143 14.2227 37.126C16.457 37.6416 18.8203 37.9854 21.3125 38.2002C22.7734 40.2627 24.2773 42.1104 25.7812 43.7861C22.6016 46.9229 19.3789 49.0713 16.7578 49.0713C16.1992 49.0713 15.6836 48.9424 15.2539 48.6846ZM41.3789 39.9619C42.1094 44.4736 41.5078 47.6533 39.7461 48.6846C39.3164 48.9424 38.8008 49.0713 38.2422 49.0713C35.6641 49.0713 32.4414 46.9658 29.2187 43.7861C30.7227 42.1533 32.2266 40.2627 33.6875 38.2002C36.1797 37.9854 38.543 37.5986 40.7773 37.126C41.0352 38.1143 41.207 39.0596 41.3789 39.9619V39.9619ZM45.2461 33.2588C44.3867 33.6025 43.4414 33.9033 42.4961 34.1611C41.8086 32.0127 40.9492 29.7354 39.918 27.458C40.9492 25.1807 41.8516 22.9463 42.4961 20.7979C48.4258 22.5166 51.9922 25.0947 51.9922 27.501C51.9922 29.5205 49.5 31.6689 45.2461 33.2588Z" fill="#61DAFB"/>
</mask>
<g mask="url(#mask0_193_928)">
<rect y="0.000976562" width="55" height="55" fill="white"/>
</g>
</svg>
