<svg width="55" height="55" viewBox="0 0 55 55" fill="none" xmlns="http://www.w3.org/2000/svg">
<mask id="mask0_193_943" style="mask-type:alpha" maskUnits="userSpaceOnUse" x="0" y="0" width="55" height="56">
<path fill-rule="evenodd" clip-rule="evenodd" d="M0.523804 24.1305C0.523804 24.4326 0.612749 24.632 0.662593 24.8257C0.987437 26.086 1.68568 27.1675 2.51412 28.1541C3.69404 29.56 5.13908 30.6918 6.61935 31.7562C7.90326 32.6791 9.21337 33.5815 10.5024 34.4976C10.7237 34.6548 10.933 34.8357 11.1732 35.0287C10.9665 35.1404 10.7946 35.2388 10.6159 35.3295C8.91474 36.1923 7.27806 37.1595 5.76943 38.3313C4.86021 39.0377 3.98107 39.7883 3.36017 40.7693C2.36115 42.3471 2.00751 44.028 2.75216 45.8229C2.96959 46.3471 3.3013 46.8 3.76923 47.1347C3.92091 47.243 4.09107 47.3504 4.26853 47.3925C4.72314 47.4995 5.18634 47.5695 5.64654 47.6542L6.94978 47.6533C8.39095 47.5248 9.70279 47.0311 10.8883 46.213C12.7411 44.9343 13.9893 43.2198 14.526 41.0194C14.9162 39.4201 14.9321 37.8191 14.4723 36.2271C14.4283 36.0796 14.3776 35.9342 14.3202 35.7914C14.2643 35.6483 14.1986 35.5091 14.1213 35.3307L17.0758 33.6318L17.1201 33.6696C17.0663 33.8453 17.0092 34.0206 16.9606 34.1981C16.6096 35.4803 16.3763 36.7848 16.4601 38.1155C16.5494 39.5335 16.9452 40.8608 17.7753 42.0455C18.4465 43.0037 20.0458 43.0393 20.7591 42.0777C21.0122 41.7361 21.2575 41.379 21.4419 40.9979C21.9235 40.0032 22.3695 38.9908 22.8297 37.9854L22.9101 37.8014C22.877 38.2775 22.8383 38.6956 22.8207 39.1141C22.7932 39.7677 22.8315 40.4174 23.0549 41.0391C23.2461 41.5711 23.5714 41.9686 24.1807 42.0386C24.5975 42.0863 24.9296 41.8955 25.236 41.6536C25.7106 41.2785 26.104 40.8109 26.3923 40.279C27.2091 38.779 28.0479 37.288 28.7882 35.7501C29.5892 34.0868 30.2895 32.3749 31.0333 30.6832L31.1562 30.3833C31.332 31.0738 31.4544 31.7502 31.68 32.3904C31.9421 33.1333 32.2665 33.8586 32.6197 34.5637C32.7869 34.8968 32.7676 35.1129 32.536 35.3922C31.5666 36.5609 30.614 37.7439 29.6605 38.9255C29.4495 39.1863 29.2394 39.4519 29.0636 39.7368C28.957 39.9167 28.8869 40.1158 28.8574 40.3228C28.8278 40.5134 28.8732 40.7081 28.984 40.866C29.0948 41.0239 29.2624 41.1327 29.4517 41.1698C29.8337 41.252 30.2254 41.28 30.6152 41.2527C31.946 41.1547 33.1543 40.6877 34.2225 39.8962C35.6065 38.8709 36.0508 37.4719 35.7156 35.8137C35.625 35.3638 35.4647 34.9264 35.3087 34.4929C35.2387 34.2973 35.234 34.1603 35.3616 33.9781C36.468 32.3981 37.4133 30.7219 38.2925 29.007C38.3273 28.9396 38.3629 28.8721 38.424 28.7999C38.7088 30.2823 39.1377 31.7111 39.906 33.0074C39.5141 33.3851 39.1261 33.7276 38.775 34.1048C38.002 34.9359 37.3317 35.8382 36.9819 36.9386C36.8315 37.413 36.7159 37.8951 36.783 38.4017C36.887 39.1885 37.5315 39.6998 38.3054 39.5206C39.9614 39.1373 41.391 38.357 42.4355 36.9747C43.1385 36.044 43.2025 35.0059 42.9082 33.9184C42.8274 33.6227 42.7316 33.3318 42.6285 32.9928C43.0371 32.8661 43.4354 32.7139 43.8475 32.6198C45.9869 32.1317 48.1031 32.2168 50.1647 32.9894C51.3683 33.4405 52.3407 34.1955 52.9173 35.3832C53.6216 36.8351 53.2323 38.2127 51.8637 39.1305C51.7361 39.216 51.59 39.2834 51.4843 39.3904C51.4505 39.4297 51.4251 39.4755 51.41 39.5251C51.3948 39.5747 51.3901 39.6268 51.3962 39.6783C51.4052 39.7312 51.5449 39.7973 51.6252 39.7965C52.0751 39.793 52.4399 39.5571 52.7901 39.3148C53.6676 38.7077 54.3078 37.8908 54.4457 36.8153L54.4728 36.7345L54.4397 36.0341C54.4264 35.9938 54.4496 35.9538 54.4466 35.9233C54.2601 34.3571 53.4235 33.1423 52.2066 32.1902C50.7972 31.088 49.1331 30.6343 47.3731 30.5625C45.9456 30.5011 44.52 30.7205 43.1772 31.2083C42.7917 31.348 42.4097 31.5134 42.0222 31.6694C41.9702 31.5753 41.9143 31.485 41.8683 31.3918C41.4704 30.5771 40.9883 29.7985 40.8818 28.8644C40.8061 28.2009 40.7133 27.5384 40.871 26.8822C41.0227 26.251 41.2204 25.6305 41.4064 25.0079C41.5022 24.6874 41.4348 24.5078 41.1288 24.3634C41.0222 24.3102 40.9085 24.2729 40.7911 24.2525C40.0392 24.1434 39.2975 24.2057 38.5692 24.4175C38.3114 24.4927 38.124 24.6371 38.0669 24.9224C38.0342 25.0861 37.9676 25.243 37.9212 25.4045C37.7309 26.0761 37.596 26.7606 37.2883 27.4004C36.5174 29.0053 35.6374 30.5496 34.7368 32.0827C34.6393 32.2482 34.5366 32.4106 34.4137 32.6112C34.0974 31.9495 33.7601 31.3557 33.6579 30.6596C33.5423 29.8724 33.4512 29.0865 33.6471 28.3054C33.7928 27.7227 33.9831 27.1508 34.1585 26.5759C34.2414 26.3026 34.2031 26.1591 33.9556 26.0151C33.8306 25.9425 33.6892 25.878 33.5483 25.857C32.7773 25.7395 31.9894 25.804 31.2477 26.0452C31.0144 26.1208 30.892 26.2716 30.8206 26.5123C30.611 27.2221 30.4322 27.9491 30.1379 28.6242C28.9459 31.357 27.7196 34.0756 26.4945 36.7938C26.2389 37.3614 25.9394 37.9093 25.6511 38.4619C25.578 38.602 25.4715 38.7253 25.3804 38.8568C25.3073 38.7704 25.279 38.7111 25.2794 38.6518C25.2815 38.3025 25.2399 37.9428 25.3065 37.6051C25.511 36.5836 25.737 35.5666 25.9845 34.5547C26.1865 33.7186 26.4215 32.8901 26.6454 32.0595C26.7206 31.7815 26.7218 31.5216 26.522 31.2878C26.1865 30.8964 25.4852 30.8104 25.0693 31.1121L24.8854 31.2161L24.921 30.9196C25.0087 30.2841 25.0263 29.6507 24.8519 29.0246C24.6344 28.2443 24.0776 27.7953 23.268 27.8202C22.8908 27.8318 22.4946 27.8963 22.1452 28.0338C20.6761 28.6096 19.5465 29.6292 18.5849 30.856C18.4957 30.9699 18.3852 31.0653 18.2596 31.137C17.0165 31.8262 15.7695 32.5068 14.523 33.19L13.1356 33.9502C12.7635 33.5952 12.4253 33.227 12.0416 32.9146C10.8698 31.959 9.67916 31.027 8.49923 30.0821C7.45337 29.2447 6.44017 28.3724 5.66501 27.2634C5.08837 26.4384 4.71669 25.5356 4.68103 24.5155C4.63591 23.2157 5.00459 22.028 5.6663 20.9225C6.51279 19.5079 7.66736 18.3727 8.93666 17.3445C10.2794 16.2573 11.7318 15.3344 13.237 14.4918C15.3429 13.3131 17.5089 12.2698 19.8314 11.5811C22.2127 10.8746 24.6288 10.4703 27.121 10.7522C28.1007 10.863 29.052 11.0873 29.9256 11.5664C30.5946 11.933 31.1433 12.4129 31.3986 13.1632C31.6504 13.9014 31.6426 14.6495 31.4682 15.3993C31.1137 16.9178 30.2822 18.1695 29.236 19.2879C27.5198 21.1214 25.4263 22.3696 23.0695 23.1942C21.7144 23.6689 20.3045 23.9697 18.8736 24.0893C17.701 24.1877 16.5529 24.0837 15.4426 23.6759C14.7074 23.4056 14.0671 22.9923 13.5524 22.3924C13.4604 22.285 13.3427 22.1686 13.1712 22.2691C13.0032 22.3679 12.9736 22.5278 13.0299 22.6898C13.124 22.9588 13.2108 23.2389 13.3573 23.4795C13.7255 24.0832 14.2626 24.5211 14.8539 24.8966C15.9895 25.6189 17.2588 25.8617 18.575 25.918C20.5722 26.0044 22.5208 25.7062 24.4419 25.1704C27.1846 24.4055 29.5694 23.0546 31.4819 20.9233C33.0743 19.1487 34.2117 17.1459 34.4554 14.7277C34.5744 13.5473 34.4476 12.391 33.8951 11.3142C33.2956 10.1476 32.3426 9.28008 31.2031 8.68238C29.5436 7.81227 27.7527 7.30566 25.9042 7.30566H24.0522C21.8135 7.30566 19.6492 7.94719 17.5454 8.71246C15.953 9.29211 14.3915 9.97617 12.8756 10.7333C9.57431 12.3829 6.4999 14.3719 3.97462 17.1068C2.7165 18.4694 1.6513 19.9729 1.03857 21.7432C0.853634 22.2717 0.694321 22.8089 0.561187 23.3528M12.5233 38.8271C12.3802 40.7431 11.5118 42.2964 10.0925 43.5545C9.29416 44.2618 8.37849 44.7654 7.31201 44.9424C6.92529 45.0064 6.52955 45.0219 6.15443 44.8616C5.61947 44.633 5.49958 44.1582 5.48927 43.6525C5.47337 42.8464 5.75568 42.1177 6.14283 41.4241C6.64814 40.5201 7.38892 39.8309 8.17998 39.1872C9.42607 38.1727 10.7779 37.3142 12.1623 36.5038L12.2667 36.4608C12.4807 37.2514 12.5826 38.0322 12.5233 38.8271V38.8271ZM23.3333 30.5002C23.2324 31.1121 23.106 31.7244 22.9273 32.3173C22.3094 34.37 21.5158 36.359 20.6577 38.3214C20.4991 38.6845 20.2684 39.0157 20.0677 39.3599C20.0336 39.4128 19.9927 39.4611 19.9461 39.5034C19.6977 39.7488 19.4623 39.7359 19.3368 39.4149C19.1907 39.042 19.1009 38.6428 19.0236 38.2479C18.9716 37.9828 18.984 37.7043 18.9677 37.4328C18.9845 35.5018 19.5736 33.7469 20.573 32.1132C20.9851 31.4395 21.4337 30.7975 22.119 30.3713C22.3322 30.2387 22.5629 30.1366 22.8044 30.0679C23.1696 29.9652 23.3939 30.1341 23.3333 30.5002V30.5002ZM30.7085 39.8966L33.3592 36.8016C33.4697 37.951 31.5159 40.2455 30.7085 39.8966ZM39.1746 37.8139C38.9873 37.9213 38.7832 37.9987 38.5911 38.0979C38.4154 38.189 38.3574 38.0971 38.3522 37.9458C38.3496 37.8411 38.3631 37.7366 38.3922 37.636C38.7501 36.3736 39.4088 35.2959 40.3889 34.4194L40.4577 34.3841C40.9239 35.6882 40.3851 37.1204 39.1746 37.8139Z" fill="#CB6699"/>
</mask>
<g mask="url(#mask0_193_943)">
<rect y="0.000976562" width="55" height="55" fill="white"/>
</g>
</svg>
