<svg width="55" height="55" viewBox="0 0 55 55" fill="none" xmlns="http://www.w3.org/2000/svg">
<mask id="mask0_193_964" style="mask-type:alpha" maskUnits="userSpaceOnUse" x="0" y="0" width="55" height="56">
<path d="M11.7112 34.685C11.7112 37.8346 9.14251 40.4072 5.99247 40.4072C2.84286 40.4072 0.270752 37.8346 0.270752 34.685C0.270752 31.5354 2.84329 28.9629 5.9929 28.9629H11.7116L11.7112 34.685ZM14.594 34.685C14.594 31.5354 17.1665 28.9629 20.3161 28.9629C23.4657 28.9629 26.0383 31.535 26.0383 34.685V49.0087C26.0383 52.1583 23.4661 54.7308 20.3161 54.7308C17.1665 54.7308 14.594 52.1583 14.594 49.0087V34.685Z" fill="#DE1C59"/>
<path d="M20.3161 11.7119C17.1665 11.7119 14.594 9.14324 14.594 5.9932C14.594 2.84359 17.1665 0.271484 20.3161 0.271484C23.4657 0.271484 26.0383 2.84402 26.0383 5.99363V11.7123L20.3161 11.7119ZM20.3161 14.5947C23.4657 14.5947 26.0383 17.1672 26.0383 20.3168C26.0383 23.4664 23.4661 26.039 20.3161 26.039H5.99247C2.84286 26.039 0.270752 23.4669 0.270752 20.3168C0.270752 17.1672 2.84329 14.5947 5.9929 14.5947H20.3161Z" fill="#35C5F0"/>
<path d="M43.289 20.3168C43.289 17.1672 45.8577 14.5947 49.0077 14.5947C52.1573 14.5947 54.7298 17.1672 54.7298 20.3168C54.7298 23.4664 52.1573 26.039 49.0077 26.039H43.289V20.3168ZM40.4062 20.3168C40.4062 23.4664 37.8337 26.039 34.6841 26.039C31.5345 26.039 28.9619 23.4669 28.9619 20.3168V5.9932C28.9619 2.84359 31.534 0.271484 34.6841 0.271484C37.8337 0.271484 40.4062 2.84402 40.4062 5.99363V20.3168Z" fill="#2EB57D"/>
<path d="M34.6841 43.29C37.8337 43.29 40.4062 45.8586 40.4062 49.0087C40.4062 52.1583 37.8337 54.7308 34.6841 54.7308C31.5345 54.7308 28.9619 52.1583 28.9619 49.0087V43.29H34.6841ZM34.6841 40.4072C31.5345 40.4072 28.9619 37.8346 28.9619 34.685C28.9619 31.5354 31.534 28.9629 34.6841 28.9629H49.0077C52.1573 28.9629 54.7298 31.535 54.7298 34.685C54.7298 37.8346 52.1573 40.4072 49.0077 40.4072H34.6841Z" fill="#EBB02E"/>
</mask>
<g mask="url(#mask0_193_964)">
<rect y="0.000976562" width="55" height="55" fill="white"/>
</g>
</svg>
