<svg width="55" height="55" viewBox="0 0 55 55" fill="none" xmlns="http://www.w3.org/2000/svg">
<path d="M49.1279 0.00167437C47.2673 -0.0448364 45.2769 0.880174 43.3022 2.45986C42.8331 2.83583 42.3646 3.25316 41.8992 3.69791C36.4958 8.86638 31.479 18.4391 29.9202 25.7499C30.5267 26.8595 31.003 28.2768 31.3158 29.3589C31.3959 29.6363 31.4672 29.8954 31.5244 30.1178C31.6617 30.6428 31.7354 30.982 31.7354 30.982C31.7354 30.982 31.6879 30.8173 31.4896 30.2969C31.4515 30.1972 31.4076 30.0895 31.358 29.9611C31.3364 29.9084 31.3091 29.844 31.276 29.7753C30.9239 29.0359 29.9477 27.4763 29.5179 26.7977C29.1505 27.7743 28.8277 28.6869 28.5569 29.5133C29.7953 31.5571 30.5485 35.0588 30.5485 35.0588C30.5485 35.0588 30.485 34.8322 30.1735 34.0402C29.8976 33.3398 28.5211 31.1641 28.1944 30.6551C27.6362 32.5121 27.4137 33.7666 27.6133 34.0715C28.0011 34.663 28.3718 35.6816 28.696 36.8095C28.8091 37.2004 28.9146 37.6038 29.0163 38.0073C28.6794 40.6746 28.6003 43.354 28.763 46.0065C28.9321 48.8813 29.3782 51.7192 29.883 54.5183C29.9364 54.8129 30.2364 55.0261 30.5708 54.9974C30.9205 54.9676 31.1775 54.688 31.1444 54.3728C30.9855 52.8471 30.851 51.3256 30.7645 49.8079L30.8415 50.4885C30.7207 49.1256 30.6872 47.6584 30.7521 46.096C30.9822 40.555 32.3981 33.8721 35.0108 26.9074C39.4264 16.3939 45.551 7.95645 51.1566 3.9285C46.0469 8.08942 39.1318 21.5573 37.0619 26.5447C34.7442 32.1293 33.1008 37.3691 32.1104 42.3908C33.8192 37.6831 39.3415 35.661 39.3415 35.661C39.3415 35.661 42.0523 32.6477 45.2168 28.3447C43.3211 28.7344 40.2053 29.4022 39.1627 29.7977C37.6243 30.38 37.2109 30.579 37.2109 30.579C37.2109 30.579 42.1939 27.842 46.4683 26.6029C52.3486 18.2536 58.755 6.39186 52.3039 1.2039C51.3127 0.406966 50.2442 0.0295808 49.1279 0.00167437ZM5.08562 2.29195C2.27581 2.29195 0 4.34375 0 6.87698V44.7035C0 47.2367 2.27581 49.2885 5.08562 49.2885H26.5083C26.3811 48.2569 26.2937 47.1911 26.2302 46.1251C26.0649 43.4658 26.1284 40.771 26.4462 38.1461C26.3699 37.8824 26.3064 37.6301 26.2302 37.3894C25.7979 35.8763 25.5044 35.3618 25.4281 35.2357C24.856 34.376 24.7545 33.3334 25.7335 30.0551C26.5739 27.4588 30.2421 11.6489 39.8704 2.29195H5.08562Z" fill="white"/>
</svg>
