<svg width="55" height="55" viewBox="0 0 55 55" fill="none" xmlns="http://www.w3.org/2000/svg">
<mask id="mask0_193_933" style="mask-type:alpha" maskUnits="userSpaceOnUse" x="0" y="0" width="56" height="56">
<path d="M27.5017 11.002C20.1682 11.002 15.5865 14.6672 13.7517 22.0007C16.5008 18.335 19.7102 16.9604 23.3758 17.877C25.4689 18.3986 26.9646 19.9163 28.621 21.598C31.3169 24.3339 34.4373 27.5011 41.2517 27.5011C48.5848 27.5011 53.1669 23.8354 55.0017 16.5002C52.2521 20.168 49.0432 21.5426 45.3771 20.6261C43.2846 20.104 41.7905 18.5868 40.1319 16.905C37.4378 14.1692 34.3183 11.002 27.5017 11.002V11.002ZM13.7517 27.5011C6.41866 27.5011 1.83647 31.1668 0.00170898 38.502C2.75085 34.8341 5.95976 33.4596 9.62585 34.3761C11.7189 34.8982 13.2146 36.4154 14.871 38.0972C17.5669 40.833 20.6873 44.0002 27.5017 44.0002C34.8348 44.0002 39.4169 40.335 41.2517 33.0015C38.5021 36.6672 35.2932 38.0418 31.6271 37.1252C29.5346 36.6036 28.0405 35.0859 26.3819 33.4041C23.6878 30.6683 20.5683 27.5011 13.7517 27.5011Z" fill="#38B2AC"/>
</mask>
<g mask="url(#mask0_193_933)">
<rect y="0.000976562" width="55" height="55" fill="white"/>
</g>
</svg>
