<svg width="55" height="55" viewBox="0 0 55 55" fill="none" xmlns="http://www.w3.org/2000/svg">
<mask id="mask0_193_959" style="mask-type:alpha" maskUnits="userSpaceOnUse" x="0" y="0" width="55" height="56">
<path d="M54.5703 6.93699C54.5703 3.34352 51.6575 0.430664 48.064 0.430664H6.93602C3.34254 0.430664 0.429688 3.34352 0.429688 6.93699V48.0645C0.429688 51.6584 3.34254 54.5713 6.93602 54.5713H48.064C51.6575 54.5713 54.5703 51.6584 54.5703 48.0645V6.93699V6.93699ZM24.9219 42.7721C24.9219 44.4079 23.5099 45.5479 21.8741 45.5479H10.1247C8.48891 45.5479 7.30469 44.4079 7.30469 42.7721V9.98262C7.30469 8.34637 8.48891 6.87598 10.1247 6.87598H21.8741C23.5099 6.87598 24.9219 8.34637 24.9219 9.98262V42.7721ZM48.5547 14.2168V27.9178C48.5547 29.5536 47.2931 30.9385 45.6569 30.9385H33.9135C32.2773 30.9385 30.9375 29.5532 30.9375 27.9178V9.82621C30.9375 8.18996 32.2773 6.87598 33.9135 6.87598H45.6569C47.2931 6.87598 48.5547 8.18996 48.5547 9.82621V14.2168Z" fill="#23719F"/>
</mask>
<g mask="url(#mask0_193_959)">
<rect y="0.000976562" width="55" height="55" fill="white"/>
</g>
</svg>
