<svg width="55" height="55" viewBox="0 0 55 55" fill="none" xmlns="http://www.w3.org/2000/svg">
<mask id="mask0_193_918" style="mask-type:alpha" maskUnits="userSpaceOnUse" x="0" y="0" width="55" height="56">
<path d="M0.859375 27.4624V54.3179H54.5703V0.606934H0.859375V27.4624ZM44.1418 25.314C45.4282 25.6125 46.5974 26.2853 47.502 27.2476C47.9999 27.766 48.4328 28.3431 48.791 28.9663C48.791 29.0351 46.4707 30.6034 45.057 31.48C45.0055 31.5144 44.7992 31.2909 44.5715 30.9515C44.3134 30.5062 43.9467 30.1335 43.5057 29.8683C43.0646 29.603 42.5635 29.4539 42.0492 29.4347C40.4207 29.3229 39.3723 30.178 39.3809 31.5831C39.3674 31.9329 39.4475 32.28 39.6129 32.5886C39.9695 33.3319 40.6355 33.7745 42.7238 34.6769C46.5695 36.3311 48.2152 37.4226 49.2379 38.9737C50.3809 40.6925 50.6344 43.4683 49.8609 45.5222C49.0016 47.7565 46.8961 49.2733 43.9184 49.7761C42.5583 49.9318 41.1842 49.9174 39.8277 49.7331C37.7576 49.3973 35.8479 48.4116 34.375 46.9187C33.8809 46.3729 32.9184 44.9507 32.9785 44.8476C33.1354 44.7311 33.3005 44.6263 33.4727 44.5339L35.4492 43.3995L36.9918 42.5058L37.3141 42.9827C37.8579 43.7607 38.5501 44.4236 39.3508 44.9335C41.0695 45.8358 43.4156 45.7112 44.5758 44.6671C44.9653 44.2845 45.2083 43.7774 45.2625 43.2341C45.3167 42.6907 45.1786 42.1456 44.8723 41.6937C44.4426 41.0964 43.5832 40.5937 41.1812 39.5452C38.4098 38.3507 37.2152 37.6116 36.1238 36.4343C35.4425 35.6574 34.9394 34.7407 34.65 33.7487C34.4341 32.6154 34.4022 31.4547 34.5555 30.3112C35.127 27.6343 37.1336 25.7651 40.0641 25.2108C41.4212 25.0429 42.7959 25.0806 44.1418 25.3226V25.314ZM31.5348 27.5655V29.7655H24.5609V49.63H19.6152V29.7612H12.6242V27.6128C12.6055 26.8732 12.6255 26.1331 12.6844 25.3956C12.7102 25.3612 16.9813 25.344 22.1375 25.3526H31.509L31.5348 27.5655Z" fill="#007ACC"/>
</mask>
<g mask="url(#mask0_193_918)">
<rect y="0.000976562" width="55" height="55" fill="white"/>
</g>
</svg>
